<svg width="2087" height="355" viewBox="0 0 2087 355" fill="none" xmlns="http://www.w3.org/2000/svg">
<rect width="2087" height="355" fill="white"/>
<path d="M1858.9 175.396C1865.37 134.198 1888.3 110.356 1899.14 103.369C1909.97 110.356 1932.63 134.198 1939.09 175.396C1945.63 217.099 1915.3 240.521 1899.16 247.169C1883.02 240.521 1852.36 217.099 1858.9 175.396Z" fill="#326238"/>
<path d="M1897.38 105.357C1897.38 104.706 1897.9 104.179 1898.55 104.179H1899.73C1900.38 104.179 1900.9 104.706 1900.9 105.357V268H1897.38V105.357Z" fill="#326238"/>
<path d="M204.312 224.76V179.96H332.056C337.176 179.96 341.443 179.192 344.856 177.656C348.44 175.949 350.232 172.451 350.232 167.16C350.232 161.699 348.44 158.2 344.856 156.664C341.443 155.128 337.176 154.36 332.056 154.36H208.408V267H144.408V103.16H322.072C334.872 103.16 346.819 104.099 357.912 105.976C369.176 107.683 378.989 110.84 387.352 115.448C395.715 120.056 402.285 126.541 407.064 134.904C411.843 143.267 414.232 154.019 414.232 167.16C414.232 180.301 411.843 190.712 407.064 198.392C402.285 206.072 395.715 211.789 387.352 215.544C378.989 219.299 369.176 221.773 357.912 222.968C346.819 224.163 334.872 224.76 322.072 224.76H204.312ZM510.17 103.16V218.36H659.418V267H446.17V103.16H510.17ZM729.654 242.168V203.768H904.758V242.168H729.654ZM672.31 267L782.134 103.16H853.302L964.15 267H893.75L798.774 120.312H836.918L742.71 267H672.31ZM1241.44 216.824L1217.63 230.392V103.16H1281.63V267H1217.63L1024.86 155.384L1048.67 141.56V267H984.67V103.16H1048.67L1241.44 216.824ZM1307.18 103.16H1573.42V151.8H1307.18V103.16ZM1408.3 148.472H1472.3V267H1408.3V148.472ZM1856.14 103.16L1752.46 225.272V267H1688.46V225.272L1584.78 103.16H1660.3L1744.52 209.4H1697.16L1780.62 103.16H1856.14Z" fill="#DC9F96"/>
</svg>
